# xmcd CD database file
#
# Track frame offsets:
#	150
#	21845
#	42539
#	62720
#	79643
#	99477
#	119368
#	138963
#	161436
#	182809
#	206406
#
# Disc length: 3209 seconds
#
# Revision: 0
# Processed by: cddbd v1.5.1PL0 Copyright (c) Steve Scherf et al.
# Submitted via: CDex 1.51
#
DISCID=8f0c870b
DTITLE=John Wibberley - From The Ocean
DYEAR=1900
DGENRE=Country
TTITLE0=Simple Man
TTITLE1=Taxi Driver
TTITLE2=Trouble Town
TTITLE3=Watching Her
TTITLE4=From The Ocean
TTITLE5=Sail Away
TTITLE6=Catch The Sun
TTITLE7=Broken Horses
TTITLE8=HAppy Anniversary
TTITLE9=Stars Guitars and Neon Bars
TTITLE10=The Boxer The Sugar Man and the Kanaka's Daughter
EXTD=
EXTT0=
EXTT1=
EXTT2=
EXTT3=
EXTT4=
EXTT5=
EXTT6=
EXTT7=
EXTT8=
EXTT9=
EXTT10=
PLAYORDER=
